<svg width="13" height="15" viewBox="0 0 13 15" fill="none" xmlns="http://www.w3.org/2000/svg">
<path id="Vector" d="M5.51461 14.6861C5.92135 15.1046 6.5819 15.1046 6.98864 14.6861L12.1949 9.32865C12.6017 8.91009 12.6017 8.23037 12.1949 7.81182C11.7882 7.39327 11.1277 7.39327 10.7209 7.81182L7.29126 11.3444L7.29126 1.07149C7.29126 0.47882 6.82595 -2.98372e-07 6.25 -2.73196e-07C5.67405 -2.48021e-07 5.20874 0.478821 5.20874 1.07149L5.20874 11.341L1.77909 7.81517C1.37235 7.39662 0.711798 7.39662 0.305056 7.81517C-0.101686 8.23372 -0.101686 8.91344 0.305056 9.33199L5.51136 14.6894L5.51461 14.6861Z" fill="white"/>
</svg>
