<svg width="17" height="14" viewBox="0 0 17 14" fill="none" xmlns="http://www.w3.org/2000/svg">
<path d="M0.355768 6.17636C-0.118589 6.63191 -0.118589 7.37173 0.355768 7.82728L6.42754 13.6583C6.90189 14.1139 7.67225 14.1139 8.1466 13.6583C8.62096 13.2028 8.62096 12.463 8.1466 12.0074L4.14303 8.16621L15.7856 8.16621C16.4573 8.16621 17 7.64506 17 7C17 6.35494 16.4573 5.83379 15.7856 5.83379L4.14683 5.83379L8.14281 1.99258C8.61717 1.53703 8.61717 0.797215 8.14281 0.341663C7.66845 -0.113888 6.8981 -0.113888 6.42374 0.341663L0.351973 6.17272L0.355768 6.17636Z" fill="#AFAFAF"/>
</svg>
