<svg width="15" height="15" viewBox="0 0 15 15" fill="none" xmlns="http://www.w3.org/2000/svg">
<path id="Vector" d="M13.0197 1.62304L13.377 1.98027C13.6545 2.25779 13.6545 2.70654 13.377 2.98111L12.5178 3.84318L11.1568 2.48216L12.0159 1.62304C12.2935 1.34552 12.7422 1.34552 13.0168 1.62304H13.0197ZM6.19397 7.44797L10.156 3.483L11.517 4.84402L7.55203 8.80603C7.46642 8.89165 7.36013 8.95365 7.24499 8.98612L5.51789 9.47916L6.01092 7.75205C6.0434 7.63691 6.1054 7.53063 6.19101 7.44501L6.19397 7.44797ZM11.0151 0.622201L5.19018 6.44418C4.93333 6.70103 4.74733 7.01693 4.6499 7.36235L3.80554 10.3147C3.73468 10.5627 3.80259 10.8284 3.98563 11.0114C4.16868 11.1945 4.43438 11.2624 4.68238 11.1915L7.6347 10.3471C7.98307 10.2468 8.29897 10.0608 8.55287 9.80687L14.3778 3.98489C15.2074 3.15529 15.2074 1.80903 14.3778 0.979432L14.0206 0.622201C13.191 -0.2074 11.8447 -0.2074 11.0151 0.622201ZM2.59804 1.77361C1.16321 1.77361 0 2.93682 0 4.37165V12.402C0 13.8368 1.16321 15 2.59804 15H10.6284C12.0632 15 13.2264 13.8368 13.2264 12.402V9.09536C13.2264 8.7027 12.9105 8.3868 12.5178 8.3868C12.1252 8.3868 11.8093 8.7027 11.8093 9.09536V12.402C11.8093 13.0544 11.2808 13.5829 10.6284 13.5829H2.59804C1.94558 13.5829 1.41711 13.0544 1.41711 12.402V4.37165C1.41711 3.71918 1.94558 3.19072 2.59804 3.19072H5.90464C6.2973 3.19072 6.6132 2.87482 6.6132 2.48216C6.6132 2.0895 6.2973 1.77361 5.90464 1.77361H2.59804Z" fill="white"/>
</svg>
